<svg width="160" height="57" viewBox="0 0 160 57" fill="none" xmlns="http://www.w3.org/2000/svg">
    <path d="M73.7302 14.8006H76.0953C77.2161 14.8006 78.109 14.5542 78.7739 14.0614C79.4388 13.5686 79.7712 12.8389 79.7712 11.8723C79.7712 10.9247 79.4388 10.2044 78.7739 9.71166C78.109 9.21888 77.1307 8.97249 75.8389 8.97249C75.4589 8.97249 75.0885 8.99145 74.7275 9.02935C74.3666 9.04831 74.0341 9.08621 73.7302 9.14307V14.8006ZM76.3518 17.6151H70.1398V7.86374C70.1398 7.52259 70.2347 7.25724 70.4247 7.06771C70.6337 6.87818 70.8996 6.72656 71.2226 6.61284C71.8305 6.42331 72.5429 6.28116 73.3598 6.1864C74.1956 6.09163 75.041 6.04425 75.8959 6.04425C78.4035 6.04425 80.2747 6.56546 81.5095 7.60787C82.7633 8.63134 83.3902 10.0433 83.3902 11.8439C83.3902 12.9811 83.0957 13.9856 82.5068 14.8574C81.9369 15.7293 81.1295 16.4116 80.0847 16.9043C79.0399 17.3782 77.7956 17.6151 76.3518 17.6151ZM75.8674 16.7053L78.9449 15.824C79.4198 16.4495 79.9042 17.0844 80.3981 17.7288C80.9111 18.3542 81.3955 18.9702 81.8514 19.5767C82.3263 20.1643 82.7443 20.7044 83.1052 21.1972C83.4852 21.69 83.7796 22.0975 83.9886 22.4197C83.8556 22.8935 83.5991 23.2631 83.2192 23.5284C82.8583 23.7938 82.4593 23.9264 82.0224 23.9264C81.4525 23.9264 81.0061 23.8032 80.6831 23.5569C80.3792 23.2915 80.0847 22.9409 79.7997 22.505L75.8674 16.7053ZM70.1398 16.3642H73.7587V23.6421C73.6067 23.699 73.3693 23.7464 73.0463 23.7843C72.7424 23.8412 72.4194 23.8696 72.0775 23.8696C71.3936 23.8696 70.8996 23.7464 70.5957 23.5C70.2917 23.2347 70.1398 22.7987 70.1398 22.1922V16.3642Z" fill="#EF6A20" />
    <path d="M88.0325 18.7523L87.89 16.3073L95.5268 15.1701C95.4698 14.4499 95.1944 13.8245 94.7005 13.2938C94.2065 12.7631 93.4846 12.4978 92.5348 12.4978C91.5659 12.4978 90.7586 12.8389 90.1127 13.5212C89.4668 14.1846 89.1343 15.1417 89.1153 16.3926L89.2008 17.8709C89.3718 19.0839 89.8372 19.9747 90.5971 20.5433C91.376 21.1119 92.3543 21.3962 93.5321 21.3962C94.33 21.3962 95.0709 21.2825 95.7548 21.0551C96.4387 20.8087 96.9801 20.5433 97.379 20.259C97.645 20.4296 97.854 20.6476 98.0059 20.9129C98.1769 21.1593 98.2624 21.4341 98.2624 21.7374C98.2624 22.2301 98.0439 22.6566 97.607 23.0167C97.1701 23.3579 96.5812 23.6232 95.8403 23.8127C95.0994 24.0023 94.254 24.097 93.3042 24.097C91.8414 24.097 90.5401 23.8317 89.4003 23.301C88.2795 22.7514 87.3961 21.9364 86.7502 20.8561C86.1233 19.7757 85.8098 18.4301 85.8098 16.8191C85.8098 15.6629 85.9903 14.6489 86.3513 13.7771C86.7122 12.9053 87.1966 12.185 87.8045 11.6164C88.4314 11.0289 89.1533 10.593 89.9702 10.3087C90.7871 10.0054 91.6419 9.85381 92.5348 9.85381C93.7886 9.85381 94.8809 10.1097 95.8118 10.6214C96.7616 11.1142 97.5025 11.806 98.0344 12.6968C98.5853 13.5876 98.8608 14.611 98.8608 15.7672C98.8608 16.2978 98.7183 16.6959 98.4334 16.9612C98.1674 17.2076 97.7875 17.3592 97.2935 17.4161L88.0325 18.7523Z" fill="#EF6A20" />
    <path d="M108.612 12.6683C107.472 12.6683 106.513 13.0379 105.734 13.7771C104.974 14.5163 104.594 15.5966 104.594 17.0181C104.594 18.4206 104.965 19.482 105.706 20.2022C106.446 20.9224 107.406 21.2825 108.584 21.2825C109.286 21.2825 109.875 21.1972 110.35 21.0266C110.844 20.8371 111.272 20.6381 111.633 20.4296C111.918 20.6002 112.136 20.8087 112.288 21.0551C112.459 21.2825 112.544 21.5668 112.544 21.9079C112.544 22.5523 112.155 23.083 111.376 23.5C110.597 23.898 109.571 24.097 108.299 24.097C106.855 24.097 105.582 23.8412 104.48 23.3294C103.397 22.7987 102.543 22.0027 101.916 20.9413C101.308 19.88 101.004 18.5722 101.004 17.0181C101.004 15.4071 101.327 14.0709 101.973 13.0095C102.637 11.9481 103.511 11.1616 104.594 10.6498C105.696 10.1192 106.902 9.85381 108.213 9.85381C109.467 9.85381 110.474 10.0718 111.234 10.5077C111.994 10.9436 112.373 11.4838 112.373 12.1282C112.373 12.4125 112.297 12.6778 112.145 12.9242C111.994 13.1706 111.813 13.3696 111.604 13.5212C111.224 13.2938 110.797 13.0948 110.322 12.9242C109.847 12.7536 109.277 12.6683 108.612 12.6683Z" fill="#EF6A20" />
    <path d="M116.639 18.7523L116.497 16.3073L124.134 15.1701C124.077 14.4499 123.801 13.8245 123.307 13.2938C122.813 12.7631 122.091 12.4978 121.142 12.4978C120.173 12.4978 119.365 12.8389 118.72 13.5212C118.074 14.1846 117.741 15.1417 117.722 16.3926L117.808 17.8709C117.979 19.0839 118.444 19.9747 119.204 20.5433C119.983 21.1119 120.961 21.3962 122.139 21.3962C122.937 21.3962 123.678 21.2825 124.362 21.0551C125.046 20.8087 125.587 20.5433 125.986 20.259C126.252 20.4296 126.461 20.6476 126.613 20.9129C126.784 21.1593 126.869 21.4341 126.869 21.7374C126.869 22.2301 126.651 22.6566 126.214 23.0167C125.777 23.3579 125.188 23.6232 124.447 23.8127C123.706 24.0023 122.861 24.097 121.911 24.097C120.448 24.097 119.147 23.8317 118.007 23.301C116.886 22.7514 116.003 21.9364 115.357 20.8561C114.73 19.7757 114.417 18.4301 114.417 16.8191C114.417 15.6629 114.597 14.6489 114.958 13.7771C115.319 12.9053 115.803 12.185 116.411 11.6164C117.038 11.0289 117.76 10.593 118.577 10.3087C119.394 10.0054 120.249 9.85381 121.142 9.85381C122.395 9.85381 123.488 10.1097 124.419 10.6214C125.368 11.1142 126.109 11.806 126.641 12.6968C127.192 13.5876 127.468 14.611 127.468 15.7672C127.468 16.2978 127.325 16.6959 127.04 16.9612C126.774 17.2076 126.394 17.3592 125.9 17.4161L116.639 18.7523Z" fill="#EF6A20" />
    <path d="M130.124 6.24326C130.124 5.69362 130.313 5.22927 130.693 4.85021C131.092 4.47115 131.586 4.28162 132.175 4.28162C132.783 4.28162 133.268 4.47115 133.628 4.85021C134.008 5.22927 134.198 5.69362 134.198 6.24326C134.198 6.77394 134.008 7.23829 133.628 7.63631C133.268 8.01537 132.783 8.2049 132.175 8.2049C131.586 8.2049 131.092 8.01537 130.693 7.63631C130.313 7.23829 130.124 6.77394 130.124 6.24326ZM130.408 16.1936H133.942V23.6421C133.79 23.699 133.571 23.7464 133.286 23.7843C133.002 23.8412 132.688 23.8696 132.346 23.8696C131.7 23.8696 131.216 23.7559 130.893 23.5284C130.57 23.282 130.408 22.8556 130.408 22.2491V16.1936ZM133.942 17.9847H130.408V10.3655C130.56 10.3087 130.779 10.2613 131.064 10.2234C131.368 10.1665 131.691 10.1381 132.033 10.1381C132.698 10.1381 133.182 10.2613 133.486 10.5077C133.79 10.7351 133.942 11.1616 133.942 11.787V17.9847Z" fill="#EF6A20" />
    <path d="M137.753 16.1936H141.258V19.5483C141.258 20.1737 141.438 20.6191 141.799 20.8845C142.179 21.1498 142.711 21.2825 143.395 21.2825C143.699 21.2825 144.022 21.2446 144.364 21.1688C144.725 21.093 145.029 20.9982 145.276 20.8845C145.409 21.0361 145.532 21.2162 145.646 21.4246C145.76 21.6331 145.817 21.889 145.817 22.1922C145.817 22.7419 145.551 23.1968 145.019 23.5569C144.506 23.917 143.699 24.097 142.597 24.097C141.096 24.097 139.909 23.7653 139.035 23.102C138.18 22.4197 137.753 21.3204 137.753 19.8042V16.1936ZM139.89 13.2938V10.5361H145.475C145.551 10.6688 145.627 10.8583 145.703 11.1047C145.798 11.3511 145.846 11.607 145.846 11.8723C145.846 12.3461 145.732 12.7062 145.504 12.9526C145.276 13.1801 144.981 13.2938 144.62 13.2938H139.89ZM141.258 16.9612H137.753V6.72656C137.905 6.6697 138.123 6.61284 138.408 6.55598C138.712 6.49912 139.026 6.47069 139.349 6.47069C140.014 6.47069 140.498 6.59389 140.802 6.84028C141.106 7.06771 141.258 7.48468 141.258 8.09118V16.9612Z" fill="#EF6A20" />
    <path d="M154.044 21.4531C154.614 21.4531 155.127 21.3962 155.583 21.2825C156.039 21.1688 156.372 21.0456 156.58 20.9129V17.6719L153.759 17.9562C152.981 18.0131 152.382 18.1837 151.964 18.468C151.565 18.7333 151.366 19.1313 151.366 19.662C151.366 20.2116 151.584 20.6476 152.021 20.9698C152.458 21.292 153.133 21.4531 154.044 21.4531ZM153.902 9.85381C155.764 9.85381 157.245 10.2518 158.347 11.0479C159.449 11.8249 160 13.0569 160 14.7437V21.2825C160 21.7374 159.886 22.0975 159.658 22.3628C159.449 22.6282 159.174 22.8651 158.832 23.0736C158.3 23.3768 157.625 23.6232 156.808 23.8127C155.992 24.0212 155.07 24.1255 154.044 24.1255C152.145 24.1255 150.653 23.7653 149.571 23.0451C148.488 22.306 147.946 21.2162 147.946 19.7757C147.946 18.5059 148.345 17.5393 149.143 16.8759C149.96 16.1936 151.138 15.7766 152.677 15.625L156.552 15.227V14.7153C156.552 13.9571 156.286 13.4075 155.754 13.0664C155.241 12.7252 154.51 12.5546 153.56 12.5546C152.819 12.5546 152.097 12.6494 151.394 12.8389C150.691 13.0284 150.064 13.2559 149.514 13.5212C149.324 13.3696 149.153 13.1611 149.001 12.8958C148.849 12.6304 148.773 12.3556 148.773 12.0713C148.773 11.389 149.153 10.8868 149.913 10.5645C150.444 10.3182 151.062 10.1381 151.765 10.0244C152.487 9.91067 153.199 9.85381 153.902 9.85381Z" fill="#EF6A20" />
    <path d="M83.2477 34.1735C83.2477 34.5336 83.1432 34.8558 82.9343 35.1401C82.7443 35.4055 82.5163 35.614 82.2504 35.7656C81.7754 35.4434 81.2245 35.1496 80.5976 34.8843C79.9707 34.6189 79.2013 34.4862 78.2895 34.4862C77.2256 34.4862 76.2853 34.7232 75.4684 35.197C74.6705 35.6519 74.0436 36.3437 73.5877 37.2723C73.1508 38.1821 72.9323 39.3003 72.9323 40.627C72.9323 42.6361 73.4357 44.1618 74.4426 45.2042C75.4494 46.2277 76.7887 46.7394 78.4605 46.7394C79.3533 46.7394 80.1227 46.6162 80.7686 46.3698C81.4145 46.1234 81.9749 45.8391 82.4498 45.5169C82.6968 45.6685 82.9058 45.896 83.0767 46.1992C83.2667 46.4835 83.3617 46.8057 83.3617 47.1658C83.3617 47.488 83.2762 47.7818 83.1052 48.0471C82.9532 48.3125 82.6778 48.5494 82.2789 48.7579C81.8799 48.9853 81.329 49.1938 80.6261 49.3833C79.9422 49.5729 79.0779 49.6676 78.033 49.6676C76.3993 49.6676 74.908 49.3454 73.5592 48.701C72.2294 48.0377 71.1751 47.0426 70.3962 45.7159C69.6173 44.3703 69.2279 42.674 69.2279 40.627C69.2279 38.637 69.6173 36.9691 70.3962 35.6234C71.1751 34.2778 72.2199 33.2638 73.5307 32.5815C74.8415 31.8802 76.2758 31.5296 77.8336 31.5296C78.9354 31.5296 79.8852 31.6528 80.6831 31.8992C81.5 32.1455 82.1269 32.4678 82.5638 32.8658C83.0197 33.2638 83.2477 33.6997 83.2477 34.1735Z" fill="#EF6A20" />
    <path d="M98.8085 43.4984H95.3035V40.9398C95.3035 39.9732 95.0376 39.2719 94.5057 38.836C93.9927 38.4 93.3373 38.1821 92.5395 38.1821C91.8936 38.1821 91.2952 38.3053 90.7442 38.5517C90.2123 38.7981 89.7469 39.0824 89.348 39.4046L89.1485 36.5616C89.5854 36.2963 90.1458 36.0404 90.8297 35.794C91.5136 35.5287 92.283 35.396 93.1379 35.396C94.8476 35.396 96.2154 35.8414 97.2412 36.7322C98.2861 37.623 98.8085 38.9686 98.8085 40.7692V43.4984ZM86.3559 41.7358H89.8609V49.1843C89.7089 49.2412 89.4904 49.2886 89.2055 49.3265C88.9205 49.3833 88.6071 49.4118 88.2651 49.4118C87.6192 49.4118 87.1348 49.298 86.8119 49.0706C86.5079 48.8242 86.3559 48.3978 86.3559 47.7913V41.7358ZM95.3035 41.7642H98.8085V49.1843C98.6565 49.2412 98.4285 49.2886 98.1246 49.3265C97.8396 49.3833 97.5357 49.4118 97.2127 49.4118C96.5478 49.4118 96.0634 49.298 95.7595 49.0706C95.4555 48.8242 95.3035 48.3978 95.3035 47.7913V41.7642ZM89.8609 43.5269H86.3559V30.762C86.5079 30.7241 86.7264 30.6767 87.0113 30.6198C87.2963 30.563 87.6097 30.5345 87.9517 30.5345C88.6166 30.5345 89.101 30.6577 89.405 30.9041C89.7089 31.1316 89.8609 31.5485 89.8609 32.155V43.5269Z" fill="#EF6A20" />
    <path d="M104.006 44.2944L103.863 41.8495L111.5 40.7123C111.443 39.9921 111.167 39.3667 110.674 38.836C110.18 38.3053 109.458 38.0399 108.508 38.0399C107.539 38.0399 106.732 38.3811 106.086 39.0634C105.44 39.7268 105.107 40.6839 105.088 41.9348L105.174 43.4131C105.345 44.6261 105.81 45.5169 106.57 46.0855C107.349 46.6541 108.327 46.9384 109.505 46.9384C110.303 46.9384 111.044 46.8247 111.728 46.5972C112.412 46.3508 112.953 46.0855 113.352 45.8012C113.618 45.9718 113.827 46.1898 113.979 46.4551C114.15 46.7015 114.235 46.9763 114.235 47.2796C114.235 47.7723 114.017 48.1988 113.58 48.5589C113.143 48.9 112.554 49.1654 111.813 49.3549C111.072 49.5444 110.227 49.6392 109.277 49.6392C107.814 49.6392 106.513 49.3739 105.373 48.8432C104.253 48.2935 103.369 47.4786 102.723 46.3982C102.096 45.3179 101.783 43.9722 101.783 42.3612C101.783 41.2051 101.963 40.1911 102.324 39.3193C102.685 38.4474 103.17 37.7272 103.778 37.1586C104.405 36.5711 105.126 36.1352 105.943 35.8509C106.76 35.5476 107.615 35.396 108.508 35.396C109.762 35.396 110.854 35.6519 111.785 36.1636C112.735 36.6564 113.476 37.3482 114.008 38.239C114.558 39.1297 114.834 40.1532 114.834 41.3093C114.834 41.84 114.691 42.238 114.406 42.5034C114.14 42.7498 113.761 42.9014 113.267 42.9583L104.006 44.2944Z" fill="#EF6A20" />
    <path d="M124.585 38.2105C123.445 38.2105 122.486 38.5801 121.707 39.3193C120.947 40.0584 120.567 41.1388 120.567 42.5602C120.567 43.9628 120.938 45.0241 121.679 45.7444C122.419 46.4646 123.379 46.8247 124.557 46.8247C125.26 46.8247 125.848 46.7394 126.323 46.5688C126.817 46.3793 127.245 46.1803 127.606 45.9718C127.891 46.1424 128.109 46.3508 128.261 46.5972C128.432 46.8247 128.518 47.109 128.518 47.4501C128.518 48.0945 128.128 48.6252 127.349 49.0422C126.57 49.4402 125.544 49.6392 124.272 49.6392C122.828 49.6392 121.555 49.3833 120.453 48.8716C119.37 48.3409 118.516 47.5449 117.889 46.4835C117.281 45.4222 116.977 44.1144 116.977 42.5602C116.977 40.9492 117.3 39.613 117.946 38.5517C118.611 37.4903 119.484 36.7038 120.567 36.192C121.669 35.6613 122.875 35.396 124.186 35.396C125.44 35.396 126.447 35.614 127.207 36.0499C127.967 36.4858 128.347 37.026 128.347 37.6704C128.347 37.9547 128.271 38.22 128.119 38.4664C127.967 38.7128 127.786 38.9118 127.577 39.0634C127.197 38.836 126.77 38.637 126.295 38.4664C125.82 38.2958 125.25 38.2105 124.585 38.2105Z" fill="#EF6A20" />
    <path d="M136.593 43.5837L134.142 41.9632L140.611 35.5381C141.314 35.5571 141.874 35.7277 142.292 36.0499C142.71 36.3531 142.919 36.7511 142.919 37.2439C142.919 37.6419 142.777 38.002 142.492 38.3242C142.226 38.6464 141.817 39.0445 141.266 39.5183L136.593 43.5837ZM134.228 42.475L136.935 41.1956L143.574 47.4217C143.518 48.0471 143.328 48.5399 143.005 48.9C142.682 49.2601 142.235 49.4402 141.665 49.4402C141.228 49.4402 140.829 49.336 140.468 49.1275C140.108 48.9 139.737 48.5589 139.357 48.104L134.228 42.475ZM131.492 41.6789L134.997 41.8495V49.1843C134.845 49.2412 134.627 49.2886 134.342 49.3265C134.057 49.3833 133.744 49.4118 133.402 49.4118C132.756 49.4118 132.271 49.298 131.948 49.0706C131.644 48.8242 131.492 48.3978 131.492 47.7913V41.6789ZM134.997 43.6406L131.492 43.47V30.762C131.644 30.7241 131.863 30.6767 132.148 30.6198C132.433 30.563 132.746 30.5345 133.088 30.5345C133.753 30.5345 134.237 30.6577 134.541 30.9041C134.845 31.1316 134.997 31.5485 134.997 32.155V43.6406Z" fill="#EF6A20" />
    <path fill-rule="evenodd" clip-rule="evenodd" d="M28.6498 24.3813C28.6498 23.8491 29.0813 23.4176 29.6136 23.4176H41.8721C42.4044 23.4176 42.8359 23.8491 42.8359 24.3813C42.8359 24.9136 42.4044 25.3451 41.8721 25.3451H29.6136C29.0813 25.3451 28.6498 24.9136 28.6498 24.3813Z" fill="#EF6A20" />
    <path fill-rule="evenodd" clip-rule="evenodd" d="M28.6498 15.4665C28.6498 14.9343 29.0813 14.5028 29.6136 14.5028H41.8721C42.4044 14.5028 42.8359 14.9343 42.8359 15.4665C42.8359 15.9988 42.4044 16.4303 41.8721 16.4303H29.6136C29.0813 16.4303 28.6498 15.9988 28.6498 15.4665Z" fill="#EF6A20" />
    <path fill-rule="evenodd" clip-rule="evenodd" d="M28.6498 33.2961C28.6498 32.7638 29.0813 32.3324 29.6136 32.3324H41.8721C42.4044 32.3324 42.8359 32.7638 42.8359 33.2961C42.8359 33.8284 42.4044 34.2599 41.8721 34.2599H29.6136C29.0813 34.2599 28.6498 33.8284 28.6498 33.2961Z" fill="#EF6A20" />
    <path fill-rule="evenodd" clip-rule="evenodd" d="M25.3073 12.5845C25.6682 12.9758 25.6435 13.5855 25.2522 13.9463L20.4184 18.4037C20.0489 18.7444 19.4796 18.744 19.1106 18.4028L16.7007 16.1741C16.3099 15.8127 16.2861 15.2029 16.6475 14.8122C17.009 14.4214 17.6188 14.3976 18.0095 14.759L19.766 16.3834L23.9454 12.5294C24.3367 12.1685 24.9464 12.1932 25.3073 12.5845Z" fill="#EF6A20" />
    <path fill-rule="evenodd" clip-rule="evenodd" d="M25.3073 21.4993C25.6682 21.8906 25.6435 22.5003 25.2522 22.8611L20.4184 27.3185C20.0489 27.6592 19.4796 27.6588 19.1106 27.3176L16.7007 25.0889C16.3099 24.7275 16.2861 24.1177 16.6475 23.7269C17.009 23.3362 17.6188 23.3124 18.0095 23.6738L19.766 25.2981L23.9454 21.4441C24.3367 21.0833 24.9464 21.108 25.3073 21.4993Z" fill="#EF6A20" />
    <path fill-rule="evenodd" clip-rule="evenodd" d="M25.3073 30.4141C25.6682 30.8053 25.6435 31.4151 25.2522 31.7759L20.4184 36.2333C20.0489 36.574 19.4796 36.5736 19.1106 36.2324L16.7007 34.0037C16.3099 33.6423 16.2861 33.0325 16.6475 32.6417C17.009 32.251 17.6188 32.2272 18.0095 32.5886L19.766 34.2129L23.9454 30.3589C24.3367 29.9981 24.9464 30.0228 25.3073 30.4141Z" fill="#EF6A20" />
    <path fill-rule="evenodd" clip-rule="evenodd" d="M42.9053 0.445126C43.9947 0.440832 45.0742 0.652151 46.0815 1.06691C47.0895 1.48194 48.0053 2.09245 48.7761 2.86322C49.547 3.63399 50.1575 4.54976 50.5725 5.55769C50.9874 6.56506 51.1987 7.64457 51.1944 8.73398V42.905C51.1944 43.4373 50.7629 43.8688 50.2306 43.8688C49.6983 43.8688 49.2667 43.4373 49.2667 42.905V8.73174L49.2668 8.7277C49.2703 7.89216 49.1083 7.0642 48.7901 6.29158C48.472 5.51897 48.004 4.817 47.4131 4.22618C46.8223 3.63536 46.1203 3.16738 45.3476 2.84925C44.5749 2.53112 43.7469 2.36914 42.9114 2.37264L42.9073 2.37265H1.40891C0.876606 2.37265 0.445092 1.94116 0.445092 1.40889C0.445092 0.876616 0.876606 0.445126 1.40891 0.445126H42.9053Z" fill="#EF6A20" />
    <path fill-rule="evenodd" clip-rule="evenodd" d="M1.32122 1.35007C1.3844 0.821563 1.86409 0.444344 2.39263 0.507528C3.726 0.666924 5.00066 1.14794 6.10689 1.90918C7.21312 2.67042 8.11778 3.68907 8.74299 4.87745C9.36821 6.06582 9.69525 7.38833 9.69597 8.73112V47.7863C9.69652 48.8168 9.94749 49.8317 10.4273 50.7436C10.9071 51.6556 11.6013 52.4373 12.4502 53.0214C13.2991 53.6056 14.2773 53.9747 15.3005 54.0971C16.3237 54.2194 17.3613 54.0912 18.324 53.7236C19.2868 53.356 20.1457 52.76 20.827 51.9868C21.5082 51.2137 21.9914 50.2866 22.2348 49.2853C22.4783 48.284 22.4747 47.2385 22.2245 46.2389C21.9743 45.2393 21.4849 44.3155 20.7985 43.5469C20.5454 43.2636 20.4824 42.8579 20.6376 42.5112C20.7929 42.1644 21.1374 41.9412 21.5173 41.9412H55.6925C55.9668 41.9412 56.228 42.058 56.4109 42.2624C57.4776 43.455 58.1762 44.9309 58.4224 46.5118C58.6686 48.0928 58.4519 49.7112 57.7983 51.1716C57.1447 52.6321 56.0823 53.8721 54.7393 54.7419C53.3964 55.6117 51.8305 56.0741 50.2306 56.0734H16.0554C16.024 56.0734 15.993 56.0719 15.9624 56.069C15.6654 56.0657 15.3681 56.0464 15.0717 56.0109C13.7383 55.8515 12.4636 55.3705 11.3574 54.6093C10.2512 53.8481 9.34653 52.8294 8.72132 51.641C8.0961 50.4527 7.76906 49.1301 7.76834 47.7874V8.73215C7.76779 7.7017 7.51682 6.68682 7.03703 5.77487C6.55725 4.86291 5.86302 4.08121 5.01411 3.49704C4.16519 2.91287 3.18703 2.54374 2.16381 2.42142C1.63527 2.35824 1.25803 1.87858 1.32122 1.35007ZM21.3642 54.1459H50.2306C51.4585 54.1465 52.6607 53.7916 53.6913 53.1241C54.7219 52.4566 55.5372 51.5051 56.0388 50.3843C56.5403 49.2636 56.7067 48.0216 56.5178 46.8084C56.3504 45.7335 55.9104 44.7219 55.2429 43.8687H23.3597C23.6808 44.4679 23.9282 45.1066 24.0945 45.7709C24.4205 47.0735 24.4251 48.4359 24.1079 49.7406C23.7906 51.0454 23.161 52.2536 22.2733 53.2611C21.9924 53.5798 21.6884 53.8755 21.3642 54.1459Z" fill="#EF6A20" />
    <path fill-rule="evenodd" clip-rule="evenodd" d="M42.9053 0.445126C43.9947 0.440832 45.0742 0.652151 46.0815 1.06691C47.0895 1.48194 48.0053 2.09245 48.7761 2.86322C49.547 3.63399 50.1575 4.54976 50.5725 5.55769C50.9874 6.56506 51.1987 7.64457 51.1944 8.73398L51.1943 41.9411L55.6925 41.9412C55.9668 41.9412 56.228 42.058 56.4109 42.2624C57.4776 43.455 58.1762 44.9309 58.4224 46.5118C58.6686 48.0928 58.4519 49.7112 57.7983 51.1716C57.1447 52.6321 56.0823 53.8721 54.7393 54.7419C53.3964 55.6117 51.8305 56.0741 50.2306 56.0734H16.0554C16.024 56.0734 15.993 56.0719 15.9624 56.069C15.6654 56.0657 15.3681 56.0464 15.0717 56.0109C13.7383 55.8515 12.4636 55.3705 11.3574 54.6093C10.2512 53.8481 9.34653 52.8294 8.72132 51.641C8.0961 50.4527 7.76906 49.1301 7.76834 47.7874V8.73215C7.76779 7.7017 7.51682 6.68682 7.03703 5.77487C6.55725 4.86291 5.86302 4.08121 5.01411 3.49704C4.61399 3.22171 4.1851 2.99411 3.73637 2.81764C3.23305 2.6197 2.70475 2.48609 2.16381 2.42142C2.09109 2.41273 2.02117 2.39612 1.95493 2.37261L1.40891 2.37265C1.32946 2.37265 1.25219 2.363 1.17833 2.34488C0.757342 2.24156 0.445092 1.86171 0.445092 1.40889C0.445092 0.913687 0.818527 0.505683 1.2992 0.451258C1.33518 0.447184 1.37183 0.445126 1.40891 0.445126H42.9053ZM1.88553 2.81764H1.40884C0.630782 2.81764 0 2.18693 0 1.40885C0 0.630777 0.630782 6.4143e-05 1.40884 6.4143e-05H42.9044C44.0522 -0.00434267 45.1895 0.218363 46.2509 0.655367C47.3132 1.09276 48.2784 1.73618 49.0908 2.54849C49.9031 3.36081 50.5466 4.32594 50.984 5.3882C51.4211 6.44961 51.6438 7.587 51.6393 8.73485C51.6393 8.73514 51.6393 8.73542 51.6393 8.73571L51.6393 41.4961H55.6924C56.0933 41.4961 56.4752 41.6669 56.7425 41.9657C57.8665 43.2223 58.6027 44.7775 58.8621 46.4433C59.1215 48.1092 58.8931 49.8145 58.2044 51.3534C57.5157 52.8923 56.3962 54.1989 54.9811 55.1154C53.5662 56.0318 51.9163 56.5191 50.2305 56.5184C50.2304 56.5184 50.2306 56.5184 50.2305 56.5184H16.0553C16.0166 56.5184 15.9782 56.5169 15.9401 56.5138C15.6329 56.5097 15.3254 56.4895 15.0188 56.4528C13.6138 56.2848 12.2707 55.778 11.1051 54.9759C9.93944 54.1738 8.9862 53.1004 8.3274 51.8482C7.66861 50.596 7.324 49.2025 7.32325 47.7876V8.73236C7.32274 7.77402 7.08933 6.83017 6.64312 5.98204C6.19692 5.13391 5.55127 4.40691 4.76176 3.86362C3.97225 3.32033 3.06254 2.97703 2.11092 2.86327C2.03342 2.854 1.95815 2.83861 1.88553 2.81764ZM50.2447 43.8687C50.2399 43.8687 50.2353 43.8688 50.2306 43.8688C50.2279 43.8688 50.2251 43.8688 50.2224 43.8687C50.2204 43.8687 50.2184 43.8687 50.2163 43.8687L23.3597 43.8687C23.438 44.0148 23.5118 44.1631 23.5812 44.3137C23.7965 44.7808 23.9687 45.2685 24.0945 45.7709C24.4205 47.0735 24.4251 48.4359 24.1079 49.7406C23.7906 51.0454 23.161 52.2536 22.2733 53.2611C22.1394 53.413 22.0002 53.5597 21.8561 53.7009C21.6979 53.8559 21.5339 54.0044 21.3642 54.1459H50.2306C51.4585 54.1465 52.6607 53.7916 53.6913 53.1241C54.7219 52.4566 55.5372 51.5051 56.0388 50.3843C56.5403 49.2636 56.7067 48.0216 56.5178 46.8084C56.3504 45.7335 55.9104 44.7219 55.2429 43.8687L50.2447 43.8687ZM55.0211 44.3137H50.2476C50.2419 44.3138 50.2362 44.3138 50.2305 44.3138C50.2248 44.3138 50.2191 44.3138 50.2134 44.3137H24.0686C24.257 44.7488 24.4102 45.1999 24.5261 45.6628C24.8697 47.0354 24.8745 48.4709 24.5402 49.8458C24.2059 51.2206 23.5425 52.4936 22.6071 53.5553C22.5639 53.6043 22.5201 53.6529 22.4759 53.7009H50.2305C51.3725 53.7014 52.4909 53.3713 53.4493 52.7506C54.4078 52.1298 55.1661 51.2448 55.6325 50.2025C56.099 49.1602 56.2537 48.0051 56.078 46.8769C55.9333 45.948 55.5698 45.07 55.0211 44.3137ZM49.2667 8.73174L49.2668 8.7277C49.2703 7.89216 49.1083 7.0642 48.7901 6.29158C48.472 5.51897 48.004 4.817 47.4131 4.22618C46.8223 3.63536 46.1203 3.16738 45.3476 2.84925C44.5749 2.53112 43.7469 2.36914 42.9114 2.37264L42.9073 2.37265L6.71775 2.37261C6.88781 2.51448 7.05192 2.66296 7.20974 2.81764C7.82266 3.41839 8.34071 4.1128 8.74299 4.87745C9.36821 6.06582 9.69525 7.38833 9.69597 8.73112V47.7863C9.69652 48.8168 9.94749 49.8317 10.4273 50.7436C10.9071 51.6556 11.6013 52.4373 12.4502 53.0214C13.2991 53.6056 14.2773 53.9747 15.3005 54.0971C16.3237 54.2194 17.3613 54.0912 18.324 53.7236C19.2868 53.356 20.1457 52.76 20.827 51.9868C21.5082 51.2137 21.9914 50.2866 22.2348 49.2853C22.4783 48.284 22.4747 47.2385 22.2245 46.2389C21.9743 45.2393 21.4849 44.3155 20.7985 43.5469C20.5454 43.2636 20.4824 42.8579 20.6376 42.5112C20.7929 42.1644 21.1374 41.9412 21.5173 41.9412L49.2667 41.9411L49.2667 8.73174ZM48.8217 41.4961V8.73089L48.8217 8.72685L48.8217 8.7258C48.8249 7.94901 48.6743 7.17928 48.3785 6.461C48.0828 5.74272 47.6477 5.09011 47.0984 4.54084C46.5491 3.99156 45.8964 3.55649 45.1781 3.26073C44.4598 2.96497 43.69 2.81437 42.9132 2.81763L42.9122 2.81763L42.9072 2.81764L7.82948 2.81764C8.34206 3.37371 8.78209 3.99604 9.13678 4.67021C9.79557 5.92241 10.1402 7.31594 10.1409 8.73085V47.7861C10.1414 48.7444 10.3748 49.6882 10.8211 50.5364C11.2673 51.3845 11.9129 52.1115 12.7024 52.6548C13.4919 53.1981 14.4016 53.5414 15.3533 53.6551C16.3049 53.7689 17.2699 53.6497 18.1652 53.3078C19.0606 52.966 19.8594 52.4116 20.493 51.6926C21.1266 50.9735 21.5759 50.1113 21.8023 49.1801C22.0287 48.2489 22.0255 47.2766 21.7928 46.347C21.5601 45.4173 21.1049 44.5581 20.4665 43.8434C20.0965 43.4291 20.0045 42.8362 20.2314 42.3293C20.4583 41.8224 20.9619 41.4961 21.5173 41.4961H48.8217ZM28.2047 24.3813C28.2047 23.6032 28.8355 22.9725 29.6136 22.9725H41.8721C42.6501 22.9725 43.2809 23.6032 43.2809 24.3813C43.2809 25.1594 42.6501 25.7901 41.8721 25.7901H29.6136C28.8355 25.7901 28.2047 25.1594 28.2047 24.3813ZM28.2047 15.4665C28.2047 14.6884 28.8355 14.0577 29.6136 14.0577H41.8721C42.6501 14.0577 43.2809 14.6884 43.2809 15.4665C43.2809 16.2446 42.6501 16.8753 41.8721 16.8753H29.6136C28.8355 16.8753 28.2047 16.2446 28.2047 15.4665ZM28.2047 33.2961C28.2047 32.518 28.8355 31.8873 29.6136 31.8873H41.8721C42.6501 31.8873 43.2809 32.518 43.2809 33.2961C43.2809 34.0742 42.6501 34.7049 41.8721 34.7049H29.6136C28.8355 34.7049 28.2047 34.0742 28.2047 33.2961ZM25.6344 12.2827C26.1619 12.8547 26.1258 13.746 25.5538 14.2735L20.7201 18.7309C20.18 19.2289 19.3478 19.2283 18.8084 18.7295L16.3985 16.5008C15.8272 15.9725 15.7924 15.0812 16.3208 14.5099C16.8491 13.9388 17.7404 13.904 18.3116 14.4322L19.7663 15.7776L23.6436 12.2022C24.2156 11.6747 25.1069 11.7108 25.6344 12.2827ZM25.6344 21.1975C26.1619 21.7695 26.1258 22.6608 25.5538 23.1882L20.7201 27.6456C20.18 28.1437 19.3478 28.1431 18.8084 27.6443L16.3985 25.4156C15.8272 24.8873 15.7924 23.996 16.3208 23.4247C16.8491 22.8535 17.7404 22.8187 18.3116 23.347L19.7663 24.6924L23.6436 21.117C24.2156 20.5895 25.1069 20.6256 25.6344 21.1975ZM25.6344 30.1123C26.1619 30.6843 26.1258 31.5756 25.5538 32.103L20.7201 36.5604C20.18 37.0585 19.3478 37.0579 18.8084 36.5591L16.3985 34.3304C15.8272 33.8021 15.7924 32.9107 16.3208 32.3395C16.8491 31.7683 17.7404 31.7335 18.3116 32.2618L19.7663 33.6071L23.6436 30.0317C24.2156 29.5043 25.1069 29.5404 25.6344 30.1123ZM25.2522 13.9463C25.6435 13.5855 25.6682 12.9758 25.3073 12.5845C24.9464 12.1932 24.3367 12.1685 23.9454 12.5294L19.766 16.3834L18.0095 14.759C17.6188 14.3976 17.009 14.4214 16.6475 14.8122C16.2861 15.2029 16.3099 15.8127 16.7007 16.1741L19.1106 18.4028C19.4796 18.744 20.0489 18.7444 20.4184 18.4037L25.2522 13.9463ZM29.6136 14.5028C29.0813 14.5028 28.6498 14.9343 28.6498 15.4665C28.6498 15.9988 29.0813 16.4303 29.6136 16.4303H41.8721C42.4044 16.4303 42.8359 15.9988 42.8359 15.4665C42.8359 14.9343 42.4044 14.5028 41.8721 14.5028H29.6136ZM29.6136 23.4176C29.0813 23.4176 28.6498 23.8491 28.6498 24.3813C28.6498 24.9136 29.0813 25.3451 29.6136 25.3451H41.8721C42.4044 25.3451 42.8359 24.9136 42.8359 24.3813C42.8359 23.8491 42.4044 23.4176 41.8721 23.4176H29.6136ZM28.6498 33.2961C28.6498 32.7638 29.0813 32.3324 29.6136 32.3324H41.8721C42.4044 32.3324 42.8359 32.7638 42.8359 33.2961C42.8359 33.8284 42.4044 34.2599 41.8721 34.2599H29.6136C29.0813 34.2599 28.6498 33.8284 28.6498 33.2961ZM25.3073 21.4993C25.6682 21.8906 25.6435 22.5003 25.2522 22.8611L20.4184 27.3185C20.0489 27.6592 19.4796 27.6588 19.1106 27.3176L16.7007 25.0889C16.3099 24.7275 16.2861 24.1177 16.6475 23.7269C17.009 23.3362 17.6188 23.3124 18.0095 23.6738L19.766 25.2981L23.9454 21.4441C24.3367 21.0833 24.9464 21.108 25.3073 21.4993ZM25.2522 31.7759C25.6435 31.4151 25.6682 30.8053 25.3073 30.4141C24.9464 30.0228 24.3367 29.9981 23.9454 30.3589L19.766 34.2129L18.0095 32.5886C17.6188 32.2272 17.009 32.251 16.6475 32.6417C16.2861 33.0325 16.3099 33.6423 16.7007 34.0037L19.1106 36.2324C19.4796 36.5736 20.0489 36.574 20.4184 36.2333L25.2522 31.7759Z" fill="#EF6A20" />
</svg>
    